<svg width="260" height="54" viewBox="0 0 260 54" fill="none" xmlns="http://www.w3.org/2000/svg">
<path d="M13.5703 7.04688V17H12.251V7.04688H13.5703Z" fill="black"/>
<path d="M33.6133 7.04688L36.1973 12.0439L38.7881 7.04688H40.2852L36.8535 13.2812V17H35.5342V13.2812L32.1025 7.04688H33.6133ZM49.0215 11.709V12.3379C49.0215 13.0853 48.9281 13.7552 48.7412 14.3477C48.5544 14.9401 48.2855 15.4437 47.9346 15.8584C47.5837 16.2731 47.1621 16.5898 46.6699 16.8086C46.1823 17.0273 45.6354 17.1367 45.0293 17.1367C44.4414 17.1367 43.9014 17.0273 43.4092 16.8086C42.9215 16.5898 42.4977 16.2731 42.1377 15.8584C41.7822 15.4437 41.5065 14.9401 41.3105 14.3477C41.1146 13.7552 41.0166 13.0853 41.0166 12.3379V11.709C41.0166 10.9616 41.1123 10.2939 41.3037 9.70605C41.4997 9.11361 41.7754 8.61003 42.1309 8.19531C42.4863 7.77604 42.9079 7.45703 43.3955 7.23828C43.8877 7.01953 44.4277 6.91016 45.0156 6.91016C45.6217 6.91016 46.1686 7.01953 46.6562 7.23828C47.1484 7.45703 47.57 7.77604 47.9209 8.19531C48.2764 8.61003 48.5475 9.11361 48.7344 9.70605C48.9258 10.2939 49.0215 10.9616 49.0215 11.709ZM47.7158 12.3379V11.6953C47.7158 11.1029 47.6543 10.5788 47.5312 10.123C47.4128 9.66732 47.2373 9.28451 47.0049 8.97461C46.7725 8.66471 46.4876 8.43001 46.1504 8.27051C45.8177 8.111 45.4395 8.03125 45.0156 8.03125C44.6055 8.03125 44.234 8.111 43.9014 8.27051C43.5732 8.43001 43.2907 8.66471 43.0537 8.97461C42.8213 9.28451 42.6413 9.66732 42.5137 10.123C42.3861 10.5788 42.3223 11.1029 42.3223 11.6953V12.3379C42.3223 12.9349 42.3861 13.4635 42.5137 13.9238C42.6413 14.3796 42.8236 14.7646 43.0605 15.0791C43.3021 15.389 43.5869 15.6237 43.915 15.7832C44.2477 15.9427 44.6191 16.0225 45.0293 16.0225C45.4577 16.0225 45.8382 15.9427 46.1709 15.7832C46.5036 15.6237 46.7839 15.389 47.0117 15.0791C47.2441 14.7646 47.4196 14.3796 47.5381 13.9238C47.6566 13.4635 47.7158 12.9349 47.7158 12.3379ZM56.6914 7.04688H58.0039V13.7803C58.0039 14.5277 57.8376 15.1497 57.5049 15.6465C57.1722 16.1432 56.7301 16.5169 56.1787 16.7676C55.6318 17.0137 55.0371 17.1367 54.3945 17.1367C53.7201 17.1367 53.1094 17.0137 52.5625 16.7676C52.0202 16.5169 51.5895 16.1432 51.2705 15.6465C50.9561 15.1497 50.7988 14.5277 50.7988 13.7803V7.04688H52.1045V13.7803C52.1045 14.2998 52.2002 14.7282 52.3916 15.0654C52.583 15.4027 52.8496 15.6533 53.1914 15.8174C53.5378 15.9814 53.9388 16.0635 54.3945 16.0635C54.8548 16.0635 55.2559 15.9814 55.5977 15.8174C55.944 15.6533 56.2129 15.4027 56.4043 15.0654C56.5957 14.7282 56.6914 14.2998 56.6914 13.7803V7.04688Z" fill="black"/>
<path d="M187.773 13.9922L189.749 7.04688H190.706L190.152 9.74707L188.026 17H187.076L187.773 13.9922ZM185.729 7.04688L187.302 13.8555L187.773 17H186.83L184.417 7.04688H185.729ZM193.263 13.8486L194.801 7.04688H196.12L193.714 17H192.771L193.263 13.8486ZM190.85 7.04688L192.771 13.9922L193.468 17H192.518L190.467 9.74707L189.906 7.04688H190.85ZM203.906 15.9268V17H198.636V15.9268H203.906ZM198.902 7.04688V17H197.583V7.04688H198.902ZM203.209 11.3262V12.3994H198.636V11.3262H203.209ZM203.838 7.04688V8.12695H198.636V7.04688H203.838Z" fill="black"/>
<path d="M223.833 7.04688V17H222.534V7.04688H223.833ZM227.032 7.04688V8.12695H219.342V7.04688H227.032ZM235.01 11.3262V12.3994H229.623V11.3262H235.01ZM229.828 7.04688V17H228.509V7.04688H229.828ZM236.158 7.04688V17H234.846V7.04688H236.158ZM244.826 15.9268V17H239.556V15.9268H244.826ZM239.822 7.04688V17H238.503V7.04688H239.822ZM244.129 11.3262V12.3994H239.556V11.3262H244.129ZM244.758 7.04688V8.12695H239.556V7.04688H244.758ZM246.918 7.04688L249.502 12.0439L252.093 7.04688H253.59L250.158 13.2812V17H248.839V13.2812L245.407 7.04688H246.918Z" fill="black"/>
<path d="M80.6562 11.3262V12.3994H75.2695V11.3262H80.6562ZM75.4746 7.04688V17H74.1553V7.04688H75.4746ZM81.8047 7.04688V17H80.4922V7.04688H81.8047ZM90.4727 15.9268V17H85.2021V15.9268H90.4727ZM85.4688 7.04688V17H84.1494V7.04688H85.4688ZM89.7754 11.3262V12.3994H85.2021V11.3262H89.7754ZM90.4043 7.04688V8.12695H85.2021V7.04688H90.4043Z" fill="black"/>
<path d="M112.46 14.4844C112.46 14.252 112.424 14.0469 112.351 13.8691C112.282 13.6868 112.159 13.5228 111.981 13.377C111.808 13.2311 111.567 13.0921 111.257 12.96C110.951 12.8278 110.564 12.6934 110.095 12.5566C109.603 12.4108 109.158 12.249 108.762 12.0713C108.365 11.889 108.026 11.6816 107.743 11.4492C107.461 11.2168 107.244 10.9502 107.094 10.6494C106.943 10.3486 106.868 10.0046 106.868 9.61719C106.868 9.22982 106.948 8.87207 107.107 8.54395C107.267 8.21582 107.495 7.93099 107.791 7.68945C108.092 7.44336 108.45 7.25195 108.864 7.11523C109.279 6.97852 109.742 6.91016 110.252 6.91016C110.999 6.91016 111.633 7.05371 112.152 7.34082C112.676 7.62337 113.075 7.99479 113.349 8.45508C113.622 8.91081 113.759 9.39844 113.759 9.91797H112.446C112.446 9.54427 112.367 9.21387 112.207 8.92676C112.048 8.63509 111.806 8.40723 111.482 8.24316C111.159 8.07454 110.749 7.99023 110.252 7.99023C109.783 7.99023 109.395 8.06087 109.09 8.20215C108.785 8.34342 108.557 8.53483 108.406 8.77637C108.26 9.0179 108.188 9.29362 108.188 9.60352C108.188 9.81315 108.231 10.0046 108.317 10.1777C108.409 10.3464 108.548 10.5036 108.734 10.6494C108.926 10.7952 109.167 10.9297 109.459 11.0527C109.755 11.1758 110.108 11.2943 110.519 11.4082C111.084 11.5677 111.571 11.7454 111.981 11.9414C112.392 12.1374 112.729 12.3584 112.993 12.6045C113.262 12.846 113.46 13.1217 113.588 13.4316C113.72 13.737 113.786 14.0833 113.786 14.4707C113.786 14.8763 113.704 15.2432 113.54 15.5713C113.376 15.8994 113.141 16.1797 112.836 16.4121C112.531 16.6445 112.164 16.8245 111.735 16.9521C111.312 17.0752 110.838 17.1367 110.313 17.1367C109.853 17.1367 109.4 17.0729 108.953 16.9453C108.511 16.8177 108.108 16.6263 107.743 16.3711C107.383 16.1159 107.094 15.8014 106.875 15.4277C106.661 15.0495 106.554 14.612 106.554 14.1152H107.866C107.866 14.457 107.932 14.751 108.064 14.9971C108.197 15.2386 108.377 15.4391 108.604 15.5986C108.837 15.7581 109.099 15.8766 109.391 15.9541C109.687 16.027 109.994 16.0635 110.313 16.0635C110.774 16.0635 111.163 15.9997 111.482 15.8721C111.801 15.7445 112.043 15.5622 112.207 15.3252C112.376 15.0882 112.46 14.8079 112.46 14.4844ZM121.969 11.3262V12.3994H116.582V11.3262H121.969ZM116.787 7.04688V17H115.468V7.04688H116.787ZM123.117 7.04688V17H121.805V7.04688H123.117ZM131.785 15.9268V17H126.515V15.9268H131.785ZM126.781 7.04688V17H125.462V7.04688H126.781ZM131.088 11.3262V12.3994H126.515V11.3262H131.088ZM131.717 7.04688V8.12695H126.515V7.04688H131.717Z" fill="black"/>
<path d="M154.57 7.04688V17H153.251V7.04688H154.57ZM160.442 7.04688V17H159.144V7.04688H160.442ZM163.642 7.04688V8.12695H155.951V7.04688H163.642Z" fill="black"/>
<path d="M14.6787 43.124H11.8828L11.2334 42.8574C10.5133 42.6296 9.95964 42.2809 9.57227 41.8115C9.1849 41.3376 8.99121 40.7497 8.99121 40.0479C8.99121 39.4053 9.13249 38.8607 9.41504 38.4141C9.70215 37.9674 10.1077 37.6279 10.6318 37.3955C11.1605 37.1631 11.7848 37.0469 12.5049 37.0469H15.6904V47H14.3711V38.127H12.5049C11.7757 38.127 11.2266 38.3001 10.8574 38.6465C10.4928 38.9928 10.3105 39.46 10.3105 40.0479C10.3105 40.4307 10.3903 40.7725 10.5498 41.0732C10.7139 41.374 10.9554 41.611 11.2744 41.7842C11.5934 41.9574 11.9899 42.0439 12.4639 42.0439H14.6855L14.6787 43.124ZM12.4365 42.4404L10.0166 47H8.61523L11.1035 42.4404H12.4365Z" fill="black"/>
<path d="M39.833 37.0469V47H38.5342V37.0469H39.833ZM43.0322 37.0469V38.127H35.3418V37.0469H43.0322ZM45.5752 41.1006H48.2891C49.0182 41.1006 49.6335 41.2236 50.1348 41.4697C50.6361 41.7113 51.0166 42.0508 51.2764 42.4883C51.5361 42.9258 51.666 43.4385 51.666 44.0264C51.666 44.4639 51.5931 44.8649 51.4473 45.2295C51.3014 45.5895 51.085 45.904 50.7979 46.1729C50.5107 46.4372 50.1576 46.6423 49.7383 46.7881C49.319 46.9294 48.8359 47 48.2891 47H44.5703V37.0469H45.8896V45.9268H48.2891C48.7767 45.9268 49.1709 45.8379 49.4717 45.6602C49.777 45.4779 50.0003 45.2409 50.1416 44.9492C50.2829 44.6576 50.3535 44.3454 50.3535 44.0127C50.3535 43.68 50.2829 43.3747 50.1416 43.0967C50.0003 42.8187 49.777 42.5977 49.4717 42.4336C49.1709 42.265 48.7767 42.1807 48.2891 42.1807H45.5752V41.1006ZM54.1885 37.0469V47H52.8691V37.0469H54.1885Z" fill="black"/>
<path d="M184.572 37.0469H185.851L189.111 45.1611L192.365 37.0469H193.65L189.604 47H188.605L184.572 37.0469ZM184.155 37.0469H185.283L185.468 43.1172V47H184.155V37.0469ZM192.933 37.0469H194.061V47H192.748V43.1172L192.933 37.0469ZM197.444 41.1006H200.158C200.887 41.1006 201.503 41.2236 202.004 41.4697C202.505 41.7113 202.886 42.0508 203.146 42.4883C203.405 42.9258 203.535 43.4385 203.535 44.0264C203.535 44.4639 203.462 44.8649 203.316 45.2295C203.171 45.5895 202.954 45.904 202.667 46.1729C202.38 46.4372 202.027 46.6423 201.607 46.7881C201.188 46.9294 200.705 47 200.158 47H196.439V37.0469H197.759V45.9268H200.158C200.646 45.9268 201.04 45.8379 201.341 45.6602C201.646 45.4779 201.869 45.2409 202.011 44.9492C202.152 44.6576 202.223 44.3454 202.223 44.0127C202.223 43.68 202.152 43.3747 202.011 43.0967C201.869 42.8187 201.646 42.5977 201.341 42.4336C201.04 42.265 200.646 42.1807 200.158 42.1807H197.444V41.1006ZM206.058 37.0469V47H204.738V37.0469H206.058Z" fill="black"/>
<path d="M230.818 41.709V42.3379C230.818 43.0853 230.725 43.7552 230.538 44.3477C230.351 44.9401 230.082 45.4437 229.731 45.8584C229.381 46.2731 228.959 46.5898 228.467 46.8086C227.979 47.0273 227.432 47.1367 226.826 47.1367C226.238 47.1367 225.698 47.0273 225.206 46.8086C224.718 46.5898 224.295 46.2731 223.935 45.8584C223.579 45.4437 223.303 44.9401 223.107 44.3477C222.911 43.7552 222.813 43.0853 222.813 42.3379V41.709C222.813 40.9616 222.909 40.2939 223.101 39.7061C223.297 39.1136 223.572 38.61 223.928 38.1953C224.283 37.776 224.705 37.457 225.192 37.2383C225.685 37.0195 226.225 36.9102 226.812 36.9102C227.419 36.9102 227.965 37.0195 228.453 37.2383C228.945 37.457 229.367 37.776 229.718 38.1953C230.073 38.61 230.344 39.1136 230.531 39.7061C230.723 40.2939 230.818 40.9616 230.818 41.709ZM229.513 42.3379V41.6953C229.513 41.1029 229.451 40.5788 229.328 40.123C229.21 39.6673 229.034 39.2845 228.802 38.9746C228.569 38.6647 228.285 38.43 227.947 38.2705C227.615 38.111 227.236 38.0312 226.812 38.0312C226.402 38.0312 226.031 38.111 225.698 38.2705C225.37 38.43 225.088 38.6647 224.851 38.9746C224.618 39.2845 224.438 39.6673 224.311 40.123C224.183 40.5788 224.119 41.1029 224.119 41.6953V42.3379C224.119 42.9349 224.183 43.4635 224.311 43.9238C224.438 44.3796 224.62 44.7646 224.857 45.0791C225.099 45.389 225.384 45.6237 225.712 45.7832C226.045 45.9427 226.416 46.0225 226.826 46.0225C227.255 46.0225 227.635 45.9427 227.968 45.7832C228.3 45.6237 228.581 45.389 228.809 45.0791C229.041 44.7646 229.216 44.3796 229.335 43.9238C229.453 43.4635 229.513 42.9349 229.513 42.3379ZM239.295 41.3262V42.3994H233.908V41.3262H239.295ZM234.113 37.0469V47H232.794V37.0469H234.113ZM240.443 37.0469V47H239.131V37.0469H240.443ZM244.162 44.7168L249.063 37.0469H250.383V47H249.063V39.3232L244.162 47H242.85V37.0469H244.162V44.7168Z" fill="black"/>
<path d="M80.8184 41.709V42.3379C80.8184 43.0853 80.7249 43.7552 80.5381 44.3477C80.3512 44.9401 80.0824 45.4437 79.7314 45.8584C79.3805 46.2731 78.959 46.5898 78.4668 46.8086C77.9792 47.0273 77.4323 47.1367 76.8262 47.1367C76.2383 47.1367 75.6982 47.0273 75.2061 46.8086C74.7184 46.5898 74.2946 46.2731 73.9346 45.8584C73.5791 45.4437 73.3034 44.9401 73.1074 44.3477C72.9115 43.7552 72.8135 43.0853 72.8135 42.3379V41.709C72.8135 40.9616 72.9092 40.2939 73.1006 39.7061C73.2965 39.1136 73.5723 38.61 73.9277 38.1953C74.2832 37.776 74.7048 37.457 75.1924 37.2383C75.6846 37.0195 76.2246 36.9102 76.8125 36.9102C77.4186 36.9102 77.9655 37.0195 78.4531 37.2383C78.9453 37.457 79.3669 37.776 79.7178 38.1953C80.0732 38.61 80.3444 39.1136 80.5312 39.7061C80.7227 40.2939 80.8184 40.9616 80.8184 41.709ZM79.5127 42.3379V41.6953C79.5127 41.1029 79.4512 40.5788 79.3281 40.123C79.2096 39.6673 79.0342 39.2845 78.8018 38.9746C78.5693 38.6647 78.2845 38.43 77.9473 38.2705C77.6146 38.111 77.2363 38.0312 76.8125 38.0312C76.4023 38.0312 76.0309 38.111 75.6982 38.2705C75.3701 38.43 75.0876 38.6647 74.8506 38.9746C74.6182 39.2845 74.4382 39.6673 74.3105 40.123C74.1829 40.5788 74.1191 41.1029 74.1191 41.6953V42.3379C74.1191 42.9349 74.1829 43.4635 74.3105 43.9238C74.4382 44.3796 74.6204 44.7646 74.8574 45.0791C75.099 45.389 75.3838 45.6237 75.7119 45.7832C76.0446 45.9427 76.416 46.0225 76.8262 46.0225C77.2546 46.0225 77.6351 45.9427 77.9678 45.7832C78.3005 45.6237 78.5807 45.389 78.8086 45.0791C79.041 44.7646 79.2165 44.3796 79.335 43.9238C79.4535 43.4635 79.5127 42.9349 79.5127 42.3379ZM89.2949 41.3262V42.3994H83.9082V41.3262H89.2949ZM84.1133 37.0469V47H82.7939V37.0469H84.1133ZM90.4434 37.0469V47H89.1309V37.0469H90.4434Z" fill="black"/>
<path d="M113.818 41.709V42.3379C113.818 43.0853 113.725 43.7552 113.538 44.3477C113.351 44.9401 113.082 45.4437 112.731 45.8584C112.381 46.2731 111.959 46.5898 111.467 46.8086C110.979 47.0273 110.432 47.1367 109.826 47.1367C109.238 47.1367 108.698 47.0273 108.206 46.8086C107.718 46.5898 107.295 46.2731 106.935 45.8584C106.579 45.4437 106.303 44.9401 106.107 44.3477C105.911 43.7552 105.813 43.0853 105.813 42.3379V41.709C105.813 40.9616 105.909 40.2939 106.101 39.7061C106.297 39.1136 106.572 38.61 106.928 38.1953C107.283 37.776 107.705 37.457 108.192 37.2383C108.685 37.0195 109.225 36.9102 109.812 36.9102C110.419 36.9102 110.965 37.0195 111.453 37.2383C111.945 37.457 112.367 37.776 112.718 38.1953C113.073 38.61 113.344 39.1136 113.531 39.7061C113.723 40.2939 113.818 40.9616 113.818 41.709ZM112.513 42.3379V41.6953C112.513 41.1029 112.451 40.5788 112.328 40.123C112.21 39.6673 112.034 39.2845 111.802 38.9746C111.569 38.6647 111.285 38.43 110.947 38.2705C110.615 38.111 110.236 38.0312 109.812 38.0312C109.402 38.0312 109.031 38.111 108.698 38.2705C108.37 38.43 108.088 38.6647 107.851 38.9746C107.618 39.2845 107.438 39.6673 107.311 40.123C107.183 40.5788 107.119 41.1029 107.119 41.6953V42.3379C107.119 42.9349 107.183 43.4635 107.311 43.9238C107.438 44.3796 107.62 44.7646 107.857 45.0791C108.099 45.389 108.384 45.6237 108.712 45.7832C109.045 45.9427 109.416 46.0225 109.826 46.0225C110.255 46.0225 110.635 45.9427 110.968 45.7832C111.3 45.6237 111.581 45.389 111.809 45.0791C112.041 44.7646 112.216 44.3796 112.335 43.9238C112.453 43.4635 112.513 42.9349 112.513 42.3379ZM122.295 41.3262V42.3994H116.908V41.3262H122.295ZM117.113 37.0469V47H115.794V37.0469H117.113ZM123.443 37.0469V47H122.131V37.0469H123.443ZM129.596 37.9287L126.301 47H124.954L128.748 37.0469H129.616L129.596 37.9287ZM132.357 47L129.056 37.9287L129.035 37.0469H129.903L133.711 47H132.357ZM132.187 43.3154V44.3955H126.595V43.3154H132.187Z" fill="black"/>
<path d="M151.818 41.709V42.3379C151.818 43.0853 151.725 43.7552 151.538 44.3477C151.351 44.9401 151.082 45.4437 150.731 45.8584C150.381 46.2731 149.959 46.5898 149.467 46.8086C148.979 47.0273 148.432 47.1367 147.826 47.1367C147.238 47.1367 146.698 47.0273 146.206 46.8086C145.718 46.5898 145.295 46.2731 144.935 45.8584C144.579 45.4437 144.303 44.9401 144.107 44.3477C143.911 43.7552 143.813 43.0853 143.813 42.3379V41.709C143.813 40.9616 143.909 40.2939 144.101 39.7061C144.297 39.1136 144.572 38.61 144.928 38.1953C145.283 37.776 145.705 37.457 146.192 37.2383C146.685 37.0195 147.225 36.9102 147.812 36.9102C148.419 36.9102 148.965 37.0195 149.453 37.2383C149.945 37.457 150.367 37.776 150.718 38.1953C151.073 38.61 151.344 39.1136 151.531 39.7061C151.723 40.2939 151.818 40.9616 151.818 41.709ZM150.513 42.3379V41.6953C150.513 41.1029 150.451 40.5788 150.328 40.123C150.21 39.6673 150.034 39.2845 149.802 38.9746C149.569 38.6647 149.285 38.43 148.947 38.2705C148.615 38.111 148.236 38.0312 147.812 38.0312C147.402 38.0312 147.031 38.111 146.698 38.2705C146.37 38.43 146.088 38.6647 145.851 38.9746C145.618 39.2845 145.438 39.6673 145.311 40.123C145.183 40.5788 145.119 41.1029 145.119 41.6953V42.3379C145.119 42.9349 145.183 43.4635 145.311 43.9238C145.438 44.3796 145.62 44.7646 145.857 45.0791C146.099 45.389 146.384 45.6237 146.712 45.7832C147.045 45.9427 147.416 46.0225 147.826 46.0225C148.255 46.0225 148.635 45.9427 148.968 45.7832C149.3 45.6237 149.581 45.389 149.809 45.0791C150.041 44.7646 150.216 44.3796 150.335 43.9238C150.453 43.4635 150.513 42.9349 150.513 42.3379ZM160.295 41.3262V42.3994H154.908V41.3262H160.295ZM155.113 37.0469V47H153.794V37.0469H155.113ZM161.443 37.0469V47H160.131V37.0469H161.443ZM171.451 41.709V42.3379C171.451 43.0853 171.358 43.7552 171.171 44.3477C170.984 44.9401 170.715 45.4437 170.364 45.8584C170.013 46.2731 169.592 46.5898 169.1 46.8086C168.612 47.0273 168.065 47.1367 167.459 47.1367C166.871 47.1367 166.331 47.0273 165.839 46.8086C165.351 46.5898 164.927 46.2731 164.567 45.8584C164.212 45.4437 163.936 44.9401 163.74 44.3477C163.544 43.7552 163.446 43.0853 163.446 42.3379V41.709C163.446 40.9616 163.542 40.2939 163.733 39.7061C163.929 39.1136 164.205 38.61 164.561 38.1953C164.916 37.776 165.338 37.457 165.825 37.2383C166.317 37.0195 166.857 36.9102 167.445 36.9102C168.051 36.9102 168.598 37.0195 169.086 37.2383C169.578 37.457 170 37.776 170.351 38.1953C170.706 38.61 170.977 39.1136 171.164 39.7061C171.355 40.2939 171.451 40.9616 171.451 41.709ZM170.146 42.3379V41.6953C170.146 41.1029 170.084 40.5788 169.961 40.123C169.842 39.6673 169.667 39.2845 169.435 38.9746C169.202 38.6647 168.917 38.43 168.58 38.2705C168.247 38.111 167.869 38.0312 167.445 38.0312C167.035 38.0312 166.664 38.111 166.331 38.2705C166.003 38.43 165.72 38.6647 165.483 38.9746C165.251 39.2845 165.071 39.6673 164.943 40.123C164.816 40.5788 164.752 41.1029 164.752 41.6953V42.3379C164.752 42.9349 164.816 43.4635 164.943 43.9238C165.071 44.3796 165.253 44.7646 165.49 45.0791C165.732 45.389 166.017 45.6237 166.345 45.7832C166.677 45.9427 167.049 46.0225 167.459 46.0225C167.887 46.0225 168.268 45.9427 168.601 45.7832C168.933 45.6237 169.214 45.389 169.441 45.0791C169.674 44.7646 169.849 44.3796 169.968 43.9238C170.086 43.4635 170.146 42.9349 170.146 42.3379Z" fill="black"/>
<rect x="0.5" y="0.5" width="259" height="53" stroke="black"/>
<rect x="24.5" y="0.5" width="40" height="53" stroke="black"/>
<rect x="99.5" y="0.5" width="40" height="53" stroke="black"/>
<rect x="174.5" y="0.5" width="40" height="53" stroke="black"/>
</svg>
