<svg width="358" height="223" viewBox="0 0 358 223" fill="none" xmlns="http://www.w3.org/2000/svg">
<g filter="url(#filter0_f_365_4)">
<rect x="20" y="20" width="318" height="182.242" fill="#6490AA" fill-opacity="0.5"/>
</g>
<rect x="19.25" y="22.0645" width="317.5" height="180.686" fill="url(#paint0_linear_365_4)" stroke="#5C89A4" stroke-width="0.5"/>
<rect x="130.5" y="22.5" width="119" height="18.6815" stroke="white"/>
<path d="M149.757 27.015V36.9681H148.444V28.0951H143.536V36.9681H142.217V27.015H149.757ZM153.223 30.9935V39.8119H151.951V29.5717H153.113L153.223 30.9935ZM158.206 33.2084V33.3519C158.206 33.8897 158.142 34.3887 158.015 34.849C157.887 35.3047 157.7 35.7012 157.454 36.0385C157.213 36.3757 156.914 36.6377 156.559 36.8246C156.203 37.0114 155.795 37.1049 155.335 37.1049C154.866 37.1049 154.451 37.0274 154.091 36.8724C153.731 36.7175 153.425 36.4919 153.175 36.1957C152.924 35.8995 152.724 35.544 152.573 35.1293C152.427 34.7146 152.327 34.2474 152.272 33.7279V32.9623C152.327 32.4154 152.43 31.9255 152.58 31.4926C152.73 31.0596 152.929 30.6905 153.175 30.3851C153.425 30.0752 153.729 29.8405 154.084 29.681C154.439 29.517 154.85 29.4349 155.314 29.4349C155.779 29.4349 156.192 29.5261 156.552 29.7084C156.912 29.8861 157.215 30.1413 157.461 30.474C157.707 30.8067 157.892 31.2054 158.015 31.6703C158.142 32.1306 158.206 32.6433 158.206 33.2084ZM156.935 33.3519V33.2084C156.935 32.8392 156.896 32.4929 156.818 32.1693C156.741 31.8412 156.62 31.5541 156.456 31.308C156.297 31.0573 156.091 30.8614 155.841 30.7201C155.59 30.5743 155.292 30.5013 154.945 30.5013C154.626 30.5013 154.348 30.556 154.111 30.6654C153.879 30.7748 153.681 30.9229 153.517 31.1097C153.353 31.292 153.218 31.5017 153.113 31.7386C153.013 31.9711 152.938 32.2126 152.888 32.4633V34.2338C152.979 34.5528 153.106 34.8536 153.271 35.1361C153.435 35.4141 153.653 35.6397 153.927 35.8129C154.2 35.9815 154.544 36.0658 154.959 36.0658C155.301 36.0658 155.595 35.9952 155.841 35.8539C156.091 35.708 156.297 35.5098 156.456 35.2592C156.62 35.0085 156.741 34.7214 156.818 34.3978C156.896 34.0697 156.935 33.7211 156.935 33.3519ZM159.484 33.3519V33.1947C159.484 32.6615 159.562 32.167 159.717 31.7113C159.872 31.251 160.095 30.8523 160.387 30.515C160.678 30.1732 161.032 29.9089 161.446 29.722C161.861 29.5306 162.326 29.4349 162.841 29.4349C163.36 29.4349 163.827 29.5306 164.242 29.722C164.661 29.9089 165.017 30.1732 165.309 30.515C165.605 30.8523 165.83 31.251 165.985 31.7113C166.14 32.167 166.218 32.6615 166.218 33.1947V33.3519C166.218 33.8851 166.14 34.3796 165.985 34.8353C165.83 35.2911 165.605 35.6898 165.309 36.0316C165.017 36.3689 164.664 36.6332 164.249 36.8246C163.839 37.0114 163.374 37.1049 162.854 37.1049C162.335 37.1049 161.868 37.0114 161.453 36.8246C161.038 36.6332 160.683 36.3689 160.387 36.0316C160.095 35.6898 159.872 35.2911 159.717 34.8353C159.562 34.3796 159.484 33.8851 159.484 33.3519ZM160.749 33.1947V33.3519C160.749 33.7211 160.792 34.0697 160.879 34.3978C160.965 34.7214 161.095 35.0085 161.269 35.2592C161.446 35.5098 161.667 35.708 161.932 35.8539C162.196 35.9952 162.504 36.0658 162.854 36.0658C163.201 36.0658 163.504 35.9952 163.764 35.8539C164.028 35.708 164.247 35.5098 164.42 35.2592C164.593 35.0085 164.723 34.7214 164.81 34.3978C164.901 34.0697 164.946 33.7211 164.946 33.3519V33.1947C164.946 32.8301 164.901 32.486 164.81 32.1625C164.723 31.8344 164.591 31.545 164.413 31.2943C164.24 31.0391 164.021 30.8386 163.757 30.6927C163.497 30.5469 163.192 30.474 162.841 30.474C162.494 30.474 162.189 30.5469 161.925 30.6927C161.665 30.8386 161.446 31.0391 161.269 31.2943C161.095 31.545 160.965 31.8344 160.879 32.1625C160.792 32.486 160.749 32.8301 160.749 33.1947ZM169.171 34.9652L172.582 29.5717H173.854V36.9681H172.582V31.5746L169.171 36.9681H167.913V29.5717H169.171V34.9652ZM178.646 33.434H177.285V32.6547H178.543C178.894 32.6547 179.172 32.6114 179.377 32.5248C179.582 32.4336 179.728 32.3083 179.814 32.1488C179.901 31.9893 179.944 31.8024 179.944 31.5883C179.944 31.3969 179.894 31.2168 179.794 31.0482C179.698 30.875 179.543 30.736 179.329 30.6312C179.115 30.5219 178.828 30.4672 178.468 30.4672C178.176 30.4672 177.912 30.5196 177.675 30.6244C177.438 30.7247 177.249 30.8636 177.107 31.0414C176.971 31.2146 176.902 31.4105 176.902 31.6293H175.638C175.638 31.1781 175.765 30.7907 176.021 30.4672C176.28 30.139 176.624 29.8861 177.053 29.7084C177.486 29.5306 177.957 29.4418 178.468 29.4418C178.896 29.4418 179.279 29.4896 179.616 29.5853C179.958 29.6765 180.247 29.8132 180.484 29.9955C180.721 30.1732 180.901 30.3965 181.024 30.6654C181.152 30.9297 181.216 31.2373 181.216 31.5883C181.216 31.8389 181.157 32.0759 181.038 32.2992C180.92 32.5225 180.749 32.7207 180.525 32.8939C180.302 33.0625 180.031 33.1947 179.712 33.2904C179.397 33.3861 179.042 33.434 178.646 33.434ZM177.285 32.9554H178.646C179.088 32.9554 179.477 32.9987 179.814 33.0853C180.152 33.1674 180.434 33.2904 180.662 33.4545C180.89 33.6185 181.061 33.8213 181.175 34.0629C181.293 34.2998 181.353 34.5733 181.353 34.8832C181.353 35.2295 181.282 35.5417 181.141 35.8197C181.004 36.0931 180.808 36.3256 180.553 36.517C180.298 36.7084 179.992 36.8542 179.637 36.9545C179.286 37.0547 178.896 37.1049 178.468 37.1049C177.989 37.1049 177.524 37.0228 177.073 36.8588C176.622 36.6947 176.251 36.4418 175.959 36.1C175.667 35.7536 175.521 35.3138 175.521 34.7806H176.786C176.786 35.0039 176.857 35.2159 176.998 35.4164C177.139 35.6169 177.335 35.7787 177.586 35.9017C177.841 36.0248 178.135 36.0863 178.468 36.0863C178.823 36.0863 179.119 36.0316 179.356 35.9222C179.593 35.8129 179.771 35.667 179.89 35.4847C180.013 35.3024 180.074 35.1042 180.074 34.89C180.074 34.612 180.02 34.3887 179.91 34.2201C179.801 34.0515 179.632 33.9284 179.404 33.851C179.181 33.7689 178.894 33.7279 178.543 33.7279H177.285V32.9554ZM188.011 32.7777V33.8031H184.101V32.7777H188.011ZM184.367 29.5717V36.9681H183.103V29.5717H184.367ZM189.036 29.5717V36.9681H187.765V29.5717H189.036ZM190.738 33.3519V33.1947C190.738 32.6615 190.816 32.167 190.971 31.7113C191.126 31.251 191.349 30.8523 191.641 30.515C191.932 30.1732 192.285 29.9089 192.7 29.722C193.115 29.5306 193.58 29.4349 194.095 29.4349C194.614 29.4349 195.081 29.5306 195.496 29.722C195.915 29.9089 196.271 30.1732 196.562 30.515C196.859 30.8523 197.084 31.251 197.239 31.7113C197.394 32.167 197.472 32.6615 197.472 33.1947V33.3519C197.472 33.8851 197.394 34.3796 197.239 34.8353C197.084 35.2911 196.859 35.6898 196.562 36.0316C196.271 36.3689 195.918 36.6332 195.503 36.8246C195.093 37.0114 194.628 37.1049 194.108 37.1049C193.589 37.1049 193.122 37.0114 192.707 36.8246C192.292 36.6332 191.937 36.3689 191.641 36.0316C191.349 35.6898 191.126 35.2911 190.971 34.8353C190.816 34.3796 190.738 33.8851 190.738 33.3519ZM192.003 33.1947V33.3519C192.003 33.7211 192.046 34.0697 192.133 34.3978C192.219 34.7214 192.349 35.0085 192.522 35.2592C192.7 35.5098 192.921 35.708 193.186 35.8539C193.45 35.9952 193.757 36.0658 194.108 36.0658C194.455 36.0658 194.758 35.9952 195.018 35.8539C195.282 35.708 195.501 35.5098 195.674 35.2592C195.847 35.0085 195.977 34.7214 196.063 34.3978C196.155 34.0697 196.2 33.7211 196.2 33.3519V33.1947C196.2 32.8301 196.155 32.486 196.063 32.1625C195.977 31.8344 195.845 31.545 195.667 31.2943C195.494 31.0391 195.275 30.8386 195.011 30.6927C194.751 30.5469 194.446 30.474 194.095 30.474C193.748 30.474 193.443 30.5469 193.179 30.6927C192.919 30.8386 192.7 31.0391 192.522 31.2943C192.349 31.545 192.219 31.8344 192.133 32.1625C192.046 32.486 192.003 32.8301 192.003 33.1947ZM199.167 29.5717H200.432V35.9291H203.139V29.5717H204.41V35.9291H207.11V29.5717H208.375V36.9681H199.167V29.5717ZM213.461 37.1049C212.946 37.1049 212.479 37.0183 212.06 36.8451C211.645 36.6674 211.287 36.419 210.986 36.1C210.69 35.781 210.462 35.4027 210.303 34.9652C210.143 34.5277 210.063 34.0492 210.063 33.5297V33.2426C210.063 32.641 210.152 32.1055 210.33 31.6361C210.508 31.1622 210.749 30.7611 211.055 30.433C211.36 30.1049 211.706 29.8565 212.094 29.6879C212.481 29.5192 212.882 29.4349 213.297 29.4349C213.826 29.4349 214.281 29.5261 214.664 29.7084C215.051 29.8907 215.368 30.1459 215.614 30.474C215.86 30.7976 216.043 31.1804 216.161 31.6224C216.28 32.0599 216.339 32.5385 216.339 33.058V33.6254H210.815V32.5931H215.074V32.4974C215.056 32.1693 214.988 31.8503 214.869 31.5404C214.755 31.2305 214.573 30.9753 214.322 30.7748C214.072 30.5743 213.73 30.474 213.297 30.474C213.01 30.474 212.745 30.5355 212.504 30.6586C212.262 30.7771 212.055 30.9548 211.882 31.1918C211.709 31.4288 211.574 31.7181 211.479 32.0599C211.383 32.4017 211.335 32.7959 211.335 33.2426V33.5297C211.335 33.8806 211.383 34.211 211.479 34.5209C211.579 34.8262 211.722 35.0951 211.909 35.3275C212.101 35.5599 212.331 35.7422 212.6 35.8744C212.873 36.0066 213.183 36.0726 213.529 36.0726C213.976 36.0726 214.354 35.9815 214.664 35.7992C214.974 35.6169 215.245 35.3731 215.478 35.0677L216.243 35.6761C216.084 35.9177 215.881 36.1478 215.635 36.3666C215.389 36.5853 215.086 36.7631 214.726 36.8998C214.37 37.0365 213.949 37.1049 213.461 37.1049ZM222.833 32.7777V33.8031H218.923V32.7777H222.833ZM219.189 29.5717V36.9681H217.925V29.5717H219.189ZM223.858 29.5717V36.9681H222.587V29.5717H223.858ZM227.263 34.9652L230.674 29.5717H231.945V36.9681H230.674V31.5746L227.263 36.9681H226.005V29.5717H227.263V34.9652ZM237.045 37.1049C236.53 37.1049 236.063 37.0183 235.644 36.8451C235.229 36.6674 234.871 36.419 234.57 36.1C234.274 35.781 234.046 35.4027 233.887 34.9652C233.727 34.5277 233.647 34.0492 233.647 33.5297V33.2426C233.647 32.641 233.736 32.1055 233.914 31.6361C234.092 31.1622 234.333 30.7611 234.639 30.433C234.944 30.1049 235.29 29.8565 235.678 29.6879C236.065 29.5192 236.466 29.4349 236.881 29.4349C237.41 29.4349 237.865 29.5261 238.248 29.7084C238.635 29.8907 238.952 30.1459 239.198 30.474C239.444 30.7976 239.627 31.1804 239.745 31.6224C239.864 32.0599 239.923 32.5385 239.923 33.058V33.6254H234.399V32.5931H238.658V32.4974C238.64 32.1693 238.572 31.8503 238.453 31.5404C238.339 31.2305 238.157 30.9753 237.906 30.7748C237.656 30.5743 237.314 30.474 236.881 30.474C236.594 30.474 236.329 30.5355 236.088 30.6586C235.846 30.7771 235.639 30.9548 235.466 31.1918C235.293 31.4288 235.158 31.7181 235.062 32.0599C234.967 32.4017 234.919 32.7959 234.919 33.2426V33.5297C234.919 33.8806 234.967 34.211 235.062 34.5209C235.163 34.8262 235.306 35.0951 235.493 35.3275C235.685 35.5599 235.915 35.7422 236.184 35.8744C236.457 36.0066 236.767 36.0726 237.113 36.0726C237.56 36.0726 237.938 35.9815 238.248 35.7992C238.558 35.6169 238.829 35.3731 239.062 35.0677L239.827 35.6761C239.668 35.9177 239.465 36.1478 239.219 36.3666C238.973 36.5853 238.67 36.7631 238.31 36.8998C237.954 37.0365 237.533 37.1049 237.045 37.1049Z" fill="white"/>
<rect x="250.5" y="22.5" width="87" height="18.6815" stroke="white"/>
<path d="M269.757 27.015V36.9681H268.444V28.0951H263.536V36.9681H262.217V27.015H269.757ZM275.027 37.1049C274.512 37.1049 274.045 37.0183 273.626 36.8451C273.211 36.6674 272.854 36.419 272.553 36.1C272.257 35.781 272.029 35.4027 271.869 34.9652C271.71 34.5277 271.63 34.0492 271.63 33.5297V33.2426C271.63 32.641 271.719 32.1055 271.896 31.6361C272.074 31.1622 272.316 30.7611 272.621 30.433C272.926 30.1049 273.273 29.8565 273.66 29.6879C274.048 29.5192 274.449 29.4349 274.863 29.4349C275.392 29.4349 275.848 29.5261 276.23 29.7084C276.618 29.8907 276.935 30.1459 277.181 30.474C277.427 30.7976 277.609 31.1804 277.728 31.6224C277.846 32.0599 277.905 32.5385 277.905 33.058V33.6254H272.382V32.5931H276.641V32.4974C276.622 32.1693 276.554 31.8503 276.436 31.5404C276.322 31.2305 276.139 30.9753 275.889 30.7748C275.638 30.5743 275.296 30.474 274.863 30.474C274.576 30.474 274.312 30.5355 274.07 30.6586C273.829 30.7771 273.621 30.9548 273.448 31.1918C273.275 31.4288 273.141 31.7181 273.045 32.0599C272.949 32.4017 272.901 32.7959 272.901 33.2426V33.5297C272.901 33.8806 272.949 34.211 273.045 34.5209C273.145 34.8262 273.289 35.0951 273.476 35.3275C273.667 35.5599 273.897 35.7422 274.166 35.8744C274.439 36.0066 274.749 36.0726 275.096 36.0726C275.542 36.0726 275.921 35.9815 276.23 35.7992C276.54 35.6169 276.812 35.3731 277.044 35.0677L277.81 35.6761C277.65 35.9177 277.447 36.1478 277.201 36.3666C276.955 36.5853 276.652 36.7631 276.292 36.8998C275.937 37.0365 275.515 37.1049 275.027 37.1049ZM280.646 30.9935V39.8119H279.375V29.5717H280.537L280.646 30.9935ZM285.63 33.2084V33.3519C285.63 33.8897 285.566 34.3887 285.438 34.849C285.311 35.3047 285.124 35.7012 284.878 36.0385C284.636 36.3757 284.338 36.6377 283.982 36.8246C283.627 37.0114 283.219 37.1049 282.759 37.1049C282.289 37.1049 281.875 37.0274 281.515 36.8724C281.155 36.7175 280.849 36.4919 280.599 36.1957C280.348 35.8995 280.147 35.544 279.997 35.1293C279.851 34.7146 279.751 34.2474 279.696 33.7279V32.9623C279.751 32.4154 279.854 31.9255 280.004 31.4926C280.154 31.0596 280.353 30.6905 280.599 30.3851C280.849 30.0752 281.152 29.8405 281.508 29.681C281.863 29.517 282.273 29.4349 282.738 29.4349C283.203 29.4349 283.616 29.5261 283.976 29.7084C284.336 29.8861 284.639 30.1413 284.885 30.474C285.131 30.8067 285.315 31.2054 285.438 31.6703C285.566 32.1306 285.63 32.6433 285.63 33.2084ZM284.358 33.3519V33.2084C284.358 32.8392 284.32 32.4929 284.242 32.1693C284.165 31.8412 284.044 31.5541 283.88 31.308C283.72 31.0573 283.515 30.8614 283.265 30.7201C283.014 30.5743 282.715 30.5013 282.369 30.5013C282.05 30.5013 281.772 30.556 281.535 30.6654C281.303 30.7748 281.104 30.9229 280.94 31.1097C280.776 31.292 280.642 31.5017 280.537 31.7386C280.437 31.9711 280.362 32.2126 280.312 32.4633V34.2338C280.403 34.5528 280.53 34.8536 280.694 35.1361C280.858 35.4141 281.077 35.6397 281.351 35.8129C281.624 35.9815 281.968 36.0658 282.383 36.0658C282.725 36.0658 283.019 35.9952 283.265 35.8539C283.515 35.708 283.72 35.5098 283.88 35.2592C284.044 35.0085 284.165 34.7214 284.242 34.3978C284.32 34.0697 284.358 33.7211 284.358 33.3519ZM290.312 37.1049C289.798 37.1049 289.33 37.0183 288.911 36.8451C288.496 36.6674 288.139 36.419 287.838 36.1C287.542 35.781 287.314 35.4027 287.154 34.9652C286.995 34.5277 286.915 34.0492 286.915 33.5297V33.2426C286.915 32.641 287.004 32.1055 287.182 31.6361C287.359 31.1622 287.601 30.7611 287.906 30.433C288.212 30.1049 288.558 29.8565 288.945 29.6879C289.333 29.5192 289.734 29.4349 290.148 29.4349C290.677 29.4349 291.133 29.5261 291.516 29.7084C291.903 29.8907 292.22 30.1459 292.466 30.474C292.712 30.7976 292.894 31.1804 293.013 31.6224C293.131 32.0599 293.19 32.5385 293.19 33.058V33.6254H287.667V32.5931H291.926V32.4974C291.908 32.1693 291.839 31.8503 291.721 31.5404C291.607 31.2305 291.424 30.9753 291.174 30.7748C290.923 30.5743 290.581 30.474 290.148 30.474C289.861 30.474 289.597 30.5355 289.355 30.6586C289.114 30.7771 288.907 30.9548 288.733 31.1918C288.56 31.4288 288.426 31.7181 288.33 32.0599C288.234 32.4017 288.187 32.7959 288.187 33.2426V33.5297C288.187 33.8806 288.234 34.211 288.33 34.5209C288.43 34.8262 288.574 35.0951 288.761 35.3275C288.952 35.5599 289.182 35.7422 289.451 35.8744C289.725 36.0066 290.035 36.0726 290.381 36.0726C290.827 36.0726 291.206 35.9815 291.516 35.7992C291.826 35.6169 292.097 35.3731 292.329 35.0677L293.095 35.6761C292.935 35.9177 292.732 36.1478 292.486 36.3666C292.24 36.5853 291.937 36.7631 291.577 36.8998C291.222 37.0365 290.8 37.1049 290.312 37.1049ZM298.14 33.7142H295.713L295.699 32.7025H297.682C298.074 32.7025 298.399 32.6638 298.659 32.5863C298.924 32.5088 299.122 32.3926 299.254 32.2377C299.386 32.0827 299.452 31.8913 299.452 31.6635C299.452 31.4857 299.413 31.3308 299.336 31.1986C299.263 31.0619 299.151 30.9502 299.001 30.8636C298.851 30.7725 298.664 30.7064 298.44 30.6654C298.222 30.6198 297.964 30.597 297.668 30.597H296.048V36.9681H294.783V29.5717H297.668C298.137 29.5717 298.559 29.6127 298.933 29.6947C299.311 29.7767 299.632 29.9021 299.896 30.0707C300.165 30.2347 300.37 30.4444 300.512 30.6996C300.653 30.9548 300.724 31.2556 300.724 31.6019C300.724 31.8252 300.678 32.0372 300.587 32.2377C300.496 32.4382 300.361 32.6159 300.184 32.7709C300.006 32.9258 299.787 33.0534 299.527 33.1537C299.268 33.2494 298.969 33.3109 298.632 33.3383L298.14 33.7142ZM298.14 36.9681H295.255L295.884 35.9427H298.14C298.491 35.9427 298.782 35.8995 299.015 35.8129C299.247 35.7217 299.42 35.5941 299.534 35.4301C299.653 35.2614 299.712 35.0609 299.712 34.8285C299.712 34.5961 299.653 34.3978 299.534 34.2338C299.42 34.0651 299.247 33.9375 299.015 33.851C298.782 33.7598 298.491 33.7142 298.14 33.7142H296.219L296.232 32.7025H298.632L299.09 33.0853C299.495 33.1172 299.84 33.2175 300.122 33.3861C300.405 33.5547 300.619 33.7689 300.765 34.0287C300.91 34.2839 300.983 34.5619 300.983 34.8627C300.983 35.209 300.917 35.5144 300.785 35.7787C300.658 36.043 300.471 36.264 300.225 36.4418C299.979 36.6149 299.68 36.7471 299.329 36.8383C298.978 36.9248 298.582 36.9681 298.14 36.9681ZM302.344 33.3519V33.1947C302.344 32.6615 302.421 32.167 302.576 31.7113C302.731 31.251 302.954 30.8523 303.246 30.515C303.538 30.1732 303.891 29.9089 304.306 29.722C304.72 29.5306 305.185 29.4349 305.7 29.4349C306.22 29.4349 306.687 29.5306 307.102 29.722C307.521 29.9089 307.876 30.1732 308.168 30.515C308.464 30.8523 308.69 31.251 308.845 31.7113C309 32.167 309.077 32.6615 309.077 33.1947V33.3519C309.077 33.8851 309 34.3796 308.845 34.8353C308.69 35.2911 308.464 35.6898 308.168 36.0316C307.876 36.3689 307.523 36.6332 307.108 36.8246C306.698 37.0114 306.233 37.1049 305.714 37.1049C305.194 37.1049 304.727 37.0114 304.312 36.8246C303.898 36.6332 303.542 36.3689 303.246 36.0316C302.954 35.6898 302.731 35.2911 302.576 34.8353C302.421 34.3796 302.344 33.8851 302.344 33.3519ZM303.608 33.1947V33.3519C303.608 33.7211 303.652 34.0697 303.738 34.3978C303.825 34.7214 303.955 35.0085 304.128 35.2592C304.306 35.5098 304.527 35.708 304.791 35.8539C305.055 35.9952 305.363 36.0658 305.714 36.0658C306.06 36.0658 306.363 35.9952 306.623 35.8539C306.887 35.708 307.106 35.5098 307.279 35.2592C307.452 35.0085 307.582 34.7214 307.669 34.3978C307.76 34.0697 307.806 33.7211 307.806 33.3519V33.1947C307.806 32.8301 307.76 32.486 307.669 32.1625C307.582 31.8344 307.45 31.545 307.272 31.2943C307.099 31.0391 306.881 30.8386 306.616 30.6927C306.356 30.5469 306.051 30.474 305.7 30.474C305.354 30.474 305.049 30.5469 304.784 30.6927C304.524 30.8386 304.306 31.0391 304.128 31.2943C303.955 31.545 303.825 31.8344 303.738 32.1625C303.652 32.486 303.608 32.8301 303.608 33.1947ZM311.504 29.5717H312.769L312.659 32.3402C312.632 33.042 312.552 33.6482 312.42 34.1586C312.288 34.669 312.119 35.1042 311.914 35.4642C311.709 35.8197 311.479 36.1182 311.224 36.3597C310.973 36.6013 310.713 36.8041 310.444 36.9681H309.815L309.85 35.9359L310.109 35.9291C310.26 35.7513 310.406 35.5691 310.547 35.3822C310.688 35.1908 310.818 34.9652 310.937 34.7054C311.055 34.4411 311.153 34.1198 311.23 33.7416C311.312 33.3588 311.365 32.8916 311.388 32.3402L311.504 29.5717ZM311.818 29.5717H316.269V36.9681H315.004V30.7406H311.818V29.5717ZM309.528 35.9291H317.219V39.1488H315.954V36.9681H310.793V39.1488H309.521L309.528 35.9291Z" fill="white"/>
<rect x="19.5" y="22.5" width="110" height="18.6815" stroke="white"/>
<path d="M28.5723 27.015H29.8506L33.1113 35.1293L36.3652 27.015H37.6504L33.6035 36.9681H32.6055L28.5723 27.015ZM28.1553 27.015H29.2832L29.4678 33.0853V36.9681H28.1553V27.015ZM36.9326 27.015H38.0605V36.9681H36.748V33.0853L36.9326 27.015ZM43.2559 37.1049C42.7409 37.1049 42.2738 37.0183 41.8545 36.8451C41.4398 36.6674 41.082 36.419 40.7812 36.1C40.485 35.781 40.2572 35.4027 40.0977 34.9652C39.9382 34.5277 39.8584 34.0492 39.8584 33.5297V33.2426C39.8584 32.641 39.9473 32.1055 40.125 31.6361C40.3027 31.1622 40.5443 30.7611 40.8496 30.433C41.1549 30.1049 41.5013 29.8565 41.8887 29.6879C42.276 29.5192 42.6771 29.4349 43.0918 29.4349C43.6204 29.4349 44.0762 29.5261 44.459 29.7084C44.8464 29.8907 45.1631 30.1459 45.4092 30.474C45.6553 30.7976 45.8376 31.1804 45.9561 31.6224C46.0745 32.0599 46.1338 32.5385 46.1338 33.058V33.6254H40.6104V32.5931H44.8691V32.4974C44.8509 32.1693 44.7826 31.8503 44.6641 31.5404C44.5501 31.2305 44.3678 30.9753 44.1172 30.7748C43.8665 30.5743 43.5247 30.474 43.0918 30.474C42.8047 30.474 42.5404 30.5355 42.2988 30.6586C42.0573 30.7771 41.8499 30.9548 41.6768 31.1918C41.5036 31.4288 41.3691 31.7181 41.2734 32.0599C41.1777 32.4017 41.1299 32.7959 41.1299 33.2426V33.5297C41.1299 33.8806 41.1777 34.211 41.2734 34.5209C41.3737 34.8262 41.5173 35.0951 41.7041 35.3275C41.8955 35.5599 42.1257 35.7422 42.3945 35.8744C42.668 36.0066 42.9779 36.0726 43.3242 36.0726C43.7708 36.0726 44.1491 35.9815 44.459 35.7992C44.7689 35.6169 45.04 35.3731 45.2725 35.0677L46.0381 35.6761C45.8786 35.9177 45.6758 36.1478 45.4297 36.3666C45.1836 36.5853 44.8805 36.7631 44.5205 36.8998C44.165 37.0365 43.7435 37.1049 43.2559 37.1049ZM50.5703 36.0658C50.8711 36.0658 51.1491 36.0043 51.4043 35.8812C51.6595 35.7582 51.8691 35.5896 52.0332 35.3754C52.1973 35.1566 52.2907 34.9082 52.3135 34.6302H53.5166C53.4938 35.0677 53.3457 35.4756 53.0723 35.8539C52.8034 36.2276 52.4502 36.5306 52.0127 36.7631C51.5752 36.9909 51.0944 37.1049 50.5703 37.1049C50.0143 37.1049 49.529 37.0069 49.1143 36.8109C48.7041 36.6149 48.3623 36.3461 48.0889 36.0043C47.82 35.6625 47.6172 35.2705 47.4805 34.8285C47.3483 34.3819 47.2822 33.9102 47.2822 33.4135V33.1263C47.2822 32.6296 47.3483 32.1602 47.4805 31.7181C47.6172 31.2715 47.82 30.8773 48.0889 30.5355C48.3623 30.1937 48.7041 29.9248 49.1143 29.7289C49.529 29.5329 50.0143 29.4349 50.5703 29.4349C51.1491 29.4349 51.6549 29.5534 52.0879 29.7904C52.5208 30.0228 52.8604 30.3418 53.1064 30.7474C53.3571 31.1485 53.4938 31.6042 53.5166 32.1146H52.3135C52.2907 31.8093 52.2041 31.5336 52.0537 31.2875C51.9079 31.0414 51.7074 30.8454 51.4521 30.6996C51.2015 30.5492 50.9076 30.474 50.5703 30.474C50.1829 30.474 49.8571 30.5515 49.5928 30.7064C49.333 30.8568 49.1257 31.0619 48.9707 31.3217C48.8203 31.5769 48.7109 31.8617 48.6426 32.1761C48.5788 32.486 48.5469 32.8028 48.5469 33.1263V33.4135C48.5469 33.737 48.5788 34.056 48.6426 34.3705C48.7064 34.6849 48.8135 34.9698 48.9639 35.225C49.1188 35.4802 49.3262 35.6853 49.5859 35.8402C49.8503 35.9906 50.1784 36.0658 50.5703 36.0658ZM57.9531 29.5717V36.9681H56.6816V29.5717H57.9531ZM60.4346 29.5717V30.597H54.248V29.5717H60.4346ZM61.0566 33.3519V33.1947C61.0566 32.6615 61.1341 32.167 61.2891 31.7113C61.444 31.251 61.6673 30.8523 61.959 30.515C62.2507 30.1732 62.6038 29.9089 63.0186 29.722C63.4333 29.5306 63.8981 29.4349 64.4131 29.4349C64.9326 29.4349 65.3997 29.5306 65.8145 29.722C66.2337 29.9089 66.5892 30.1732 66.8809 30.515C67.1771 30.8523 67.4027 31.251 67.5576 31.7113C67.7126 32.167 67.79 32.6615 67.79 33.1947V33.3519C67.79 33.8851 67.7126 34.3796 67.5576 34.8353C67.4027 35.2911 67.1771 35.6898 66.8809 36.0316C66.5892 36.3689 66.236 36.6332 65.8213 36.8246C65.4111 37.0114 64.9463 37.1049 64.4268 37.1049C63.9072 37.1049 63.4401 37.0114 63.0254 36.8246C62.6107 36.6332 62.2552 36.3689 61.959 36.0316C61.6673 35.6898 61.444 35.2911 61.2891 34.8353C61.1341 34.3796 61.0566 33.8851 61.0566 33.3519ZM62.3213 33.1947V33.3519C62.3213 33.7211 62.3646 34.0697 62.4512 34.3978C62.5378 34.7214 62.6676 35.0085 62.8408 35.2592C63.0186 35.5098 63.2396 35.708 63.5039 35.8539C63.7682 35.9952 64.0758 36.0658 64.4268 36.0658C64.7731 36.0658 65.0762 35.9952 65.3359 35.8539C65.6003 35.708 65.819 35.5098 65.9922 35.2592C66.1654 35.0085 66.2952 34.7214 66.3818 34.3978C66.473 34.0697 66.5186 33.7211 66.5186 33.3519V33.1947C66.5186 32.8301 66.473 32.486 66.3818 32.1625C66.2952 31.8344 66.1631 31.545 65.9854 31.2943C65.8122 31.0391 65.5934 30.8386 65.3291 30.6927C65.0693 30.5469 64.764 30.474 64.4131 30.474C64.0667 30.474 63.7614 30.5469 63.4971 30.6927C63.2373 30.8386 63.0186 31.0391 62.8408 31.2943C62.6676 31.545 62.5378 31.8344 62.4512 32.1625C62.3646 32.486 62.3213 32.8301 62.3213 33.1947ZM70.7432 34.9652L74.1543 29.5717H75.4258V36.9681H74.1543V31.5746L70.7432 36.9681H69.4854V29.5717H70.7432V34.9652ZM81.708 35.2865L84.2236 29.5717H85.4404L82.1455 36.9681H81.2705L77.9893 29.5717H79.2061L81.708 35.2865ZM78.8369 29.5717V36.9681H77.5723V29.5717H78.8369ZM84.5381 36.9681V29.5717H85.8096V36.9681H84.5381ZM90.916 37.1049C90.401 37.1049 89.9339 37.0183 89.5146 36.8451C89.0999 36.6674 88.7422 36.419 88.4414 36.1C88.1452 35.781 87.9173 35.4027 87.7578 34.9652C87.5983 34.5277 87.5186 34.0492 87.5186 33.5297V33.2426C87.5186 32.641 87.6074 32.1055 87.7852 31.6361C87.9629 31.1622 88.2044 30.7611 88.5098 30.433C88.8151 30.1049 89.1615 29.8565 89.5488 29.6879C89.9362 29.5192 90.3372 29.4349 90.752 29.4349C91.2806 29.4349 91.7363 29.5261 92.1191 29.7084C92.5065 29.8907 92.8232 30.1459 93.0693 30.474C93.3154 30.7976 93.4977 31.1804 93.6162 31.6224C93.7347 32.0599 93.7939 32.5385 93.7939 33.058V33.6254H88.2705V32.5931H92.5293V32.4974C92.5111 32.1693 92.4427 31.8503 92.3242 31.5404C92.2103 31.2305 92.028 30.9753 91.7773 30.7748C91.5267 30.5743 91.1849 30.474 90.752 30.474C90.4648 30.474 90.2005 30.5355 89.959 30.6586C89.7174 30.7771 89.5101 30.9548 89.3369 31.1918C89.1637 31.4288 89.0293 31.7181 88.9336 32.0599C88.8379 32.4017 88.79 32.7959 88.79 33.2426V33.5297C88.79 33.8806 88.8379 34.211 88.9336 34.5209C89.0339 34.8262 89.1774 35.0951 89.3643 35.3275C89.5557 35.5599 89.7858 35.7422 90.0547 35.8744C90.3281 36.0066 90.638 36.0726 90.9844 36.0726C91.431 36.0726 91.8092 35.9815 92.1191 35.7992C92.429 35.6169 92.7002 35.3731 92.9326 35.0677L93.6982 35.6761C93.5387 35.9177 93.3359 36.1478 93.0898 36.3666C92.8438 36.5853 92.5407 36.7631 92.1807 36.8998C91.8252 37.0365 91.4036 37.1049 90.916 37.1049ZM100.288 32.7777V33.8031H96.3779V32.7777H100.288ZM96.6445 29.5717V36.9681H95.3799V29.5717H96.6445ZM101.313 29.5717V36.9681H100.042V29.5717H101.313ZM104.718 34.9652L108.129 29.5717H109.4V36.9681H108.129V31.5746L104.718 36.9681H103.46V29.5717H104.718V34.9652ZM114.5 37.1049C113.985 37.1049 113.518 37.0183 113.099 36.8451C112.684 36.6674 112.326 36.419 112.025 36.1C111.729 35.781 111.501 35.4027 111.342 34.9652C111.182 34.5277 111.103 34.0492 111.103 33.5297V33.2426C111.103 32.641 111.191 32.1055 111.369 31.6361C111.547 31.1622 111.788 30.7611 112.094 30.433C112.399 30.1049 112.745 29.8565 113.133 29.6879C113.52 29.5192 113.921 29.4349 114.336 29.4349C114.865 29.4349 115.32 29.5261 115.703 29.7084C116.09 29.8907 116.407 30.1459 116.653 30.474C116.899 30.7976 117.082 31.1804 117.2 31.6224C117.319 32.0599 117.378 32.5385 117.378 33.058V33.6254H111.854V32.5931H116.113V32.4974C116.095 32.1693 116.027 31.8503 115.908 31.5404C115.794 31.2305 115.612 30.9753 115.361 30.7748C115.111 30.5743 114.769 30.474 114.336 30.474C114.049 30.474 113.785 30.5355 113.543 30.6586C113.301 30.7771 113.094 30.9548 112.921 31.1918C112.748 31.4288 112.613 31.7181 112.518 32.0599C112.422 32.4017 112.374 32.7959 112.374 33.2426V33.5297C112.374 33.8806 112.422 34.211 112.518 34.5209C112.618 34.8262 112.761 35.0951 112.948 35.3275C113.14 35.5599 113.37 35.7422 113.639 35.8744C113.912 36.0066 114.222 36.0726 114.568 36.0726C115.015 36.0726 115.393 35.9815 115.703 35.7992C116.013 35.6169 116.284 35.3731 116.517 35.0677L117.282 35.6761C117.123 35.9177 116.92 36.1478 116.674 36.3666C116.428 36.5853 116.125 36.7631 115.765 36.8998C115.409 37.0365 114.988 37.1049 114.5 37.1049Z" fill="white"/>
<path d="M37.5703 49.6488V59.6019H36.251V49.6488H37.5703Z" fill="white"/>
<path d="M36.6133 70.3143L39.1973 75.3114L41.7881 70.3143H43.2852L39.8535 76.5487V80.2675H38.5342V76.5487L35.1025 70.3143H36.6133ZM52.0215 74.9764V75.6053C52.0215 76.3527 51.9281 77.0227 51.7412 77.6151C51.5544 78.2076 51.2855 78.7111 50.9346 79.1259C50.5837 79.5406 50.1621 79.8573 49.6699 80.076C49.1823 80.2948 48.6354 80.4042 48.0293 80.4042C47.4414 80.4042 46.9014 80.2948 46.4092 80.076C45.9215 79.8573 45.4977 79.5406 45.1377 79.1259C44.7822 78.7111 44.5065 78.2076 44.3105 77.6151C44.1146 77.0227 44.0166 76.3527 44.0166 75.6053V74.9764C44.0166 74.229 44.1123 73.5614 44.3037 72.9735C44.4997 72.3811 44.7754 71.8775 45.1309 71.4628C45.4863 71.0435 45.9079 70.7245 46.3955 70.5057C46.8877 70.287 47.4277 70.1776 48.0156 70.1776C48.6217 70.1776 49.1686 70.287 49.6562 70.5057C50.1484 70.7245 50.57 71.0435 50.9209 71.4628C51.2764 71.8775 51.5475 72.3811 51.7344 72.9735C51.9258 73.5614 52.0215 74.229 52.0215 74.9764ZM50.7158 75.6053V74.9628C50.7158 74.3703 50.6543 73.8462 50.5312 73.3905C50.4128 72.9348 50.2373 72.552 50.0049 72.2421C49.7725 71.9322 49.4876 71.6975 49.1504 71.538C48.8177 71.3785 48.4395 71.2987 48.0156 71.2987C47.6055 71.2987 47.234 71.3785 46.9014 71.538C46.5732 71.6975 46.2907 71.9322 46.0537 72.2421C45.8213 72.552 45.6413 72.9348 45.5137 73.3905C45.3861 73.8462 45.3223 74.3703 45.3223 74.9628V75.6053C45.3223 76.2024 45.3861 76.731 45.5137 77.1913C45.6413 77.647 45.8236 78.0321 46.0605 78.3466C46.3021 78.6565 46.5869 78.8912 46.915 79.0507C47.2477 79.2102 47.6191 79.2899 48.0293 79.2899C48.4577 79.2899 48.8382 79.2102 49.1709 79.0507C49.5036 78.8912 49.7839 78.6565 50.0117 78.3466C50.2441 78.0321 50.4196 77.647 50.5381 77.1913C50.6566 76.731 50.7158 76.2024 50.7158 75.6053ZM59.6914 70.3143H61.0039V77.0477C61.0039 77.7951 60.8376 78.4172 60.5049 78.9139C60.1722 79.4107 59.7301 79.7844 59.1787 80.035C58.6318 80.2811 58.0371 80.4042 57.3945 80.4042C56.7201 80.4042 56.1094 80.2811 55.5625 80.035C55.0202 79.7844 54.5895 79.4107 54.2705 78.9139C53.9561 78.4172 53.7988 77.7951 53.7988 77.0477V70.3143H55.1045V77.0477C55.1045 77.5673 55.2002 77.9956 55.3916 78.3329C55.583 78.6701 55.8496 78.9208 56.1914 79.0848C56.5378 79.2489 56.9388 79.3309 57.3945 79.3309C57.8548 79.3309 58.2559 79.2489 58.5977 79.0848C58.944 78.9208 59.2129 78.6701 59.4043 78.3329C59.5957 77.9956 59.6914 77.5673 59.6914 77.0477V70.3143Z" fill="white"/>
<path d="M38.7734 166.81L40.749 159.865H41.7061L41.1523 162.565L39.0264 169.818H38.0762L38.7734 166.81ZM36.7295 159.865L38.3018 166.674L38.7734 169.818H37.8301L35.417 159.865H36.7295ZM44.2627 166.667L45.8008 159.865H47.1201L44.7139 169.818H43.7705L44.2627 166.667ZM41.8496 159.865L43.7705 166.81L44.4678 169.818H43.5176L41.4668 162.565L40.9062 159.865H41.8496ZM54.9062 168.745V169.818H49.6357V168.745H54.9062ZM49.9023 159.865V169.818H48.583V159.865H49.9023ZM54.209 164.144V165.218H49.6357V164.144H54.209ZM54.8379 159.865V160.945H49.6357V159.865H54.8379Z" fill="white"/>
<path d="M39.833 185.451V195.404H38.5342V185.451H39.833ZM43.0322 185.451V186.531H35.3418V185.451H43.0322ZM51.0098 189.73V190.804H45.623V189.73H51.0098ZM45.8281 185.451V195.404H44.5088V185.451H45.8281ZM52.1582 185.451V195.404H50.8457V185.451H52.1582ZM60.8262 194.331V195.404H55.5557V194.331H60.8262ZM55.8223 185.451V195.404H54.5029V185.451H55.8223ZM60.1289 189.73V190.804H55.5557V189.73H60.1289ZM60.7578 185.451V186.531H55.5557V185.451H60.7578ZM62.918 185.451L65.502 190.448L68.0928 185.451H69.5898L66.1582 191.686V195.404H64.8389V191.686L61.4072 185.451H62.918Z" fill="white"/>
<path d="M42.6562 96.2433V97.3165H37.2695V96.2433H42.6562ZM37.4746 91.964V101.917H36.1553V91.964H37.4746ZM43.8047 91.964V101.917H42.4922V91.964H43.8047ZM52.4727 100.844V101.917H47.2021V100.844H52.4727ZM47.4688 91.964V101.917H46.1494V91.964H47.4688ZM51.7754 96.2433V97.3165H47.2021V96.2433H51.7754ZM52.4043 91.964V93.0441H47.2021V91.964H52.4043Z" fill="white"/>
<path d="M41.46 122.035C41.46 121.803 41.4235 121.598 41.3506 121.42C41.2822 121.238 41.1592 121.074 40.9814 120.928C40.8083 120.782 40.5667 120.643 40.2568 120.511C39.9515 120.379 39.5641 120.244 39.0947 120.107C38.6025 119.962 38.1582 119.8 37.7617 119.622C37.3652 119.44 37.0257 119.232 36.7432 119C36.4606 118.768 36.2441 118.501 36.0938 118.2C35.9434 117.899 35.8682 117.555 35.8682 117.168C35.8682 116.781 35.9479 116.423 36.1074 116.095C36.2669 115.767 36.4948 115.482 36.791 115.24C37.0918 114.994 37.4495 114.803 37.8643 114.666C38.279 114.529 38.7415 114.461 39.252 114.461C39.9993 114.461 40.6328 114.604 41.1523 114.892C41.6764 115.174 42.0752 115.546 42.3486 116.006C42.6221 116.462 42.7588 116.949 42.7588 117.469H41.4463C41.4463 117.095 41.3665 116.765 41.207 116.478C41.0475 116.186 40.806 115.958 40.4824 115.794C40.1589 115.625 39.7487 115.541 39.252 115.541C38.7826 115.541 38.3952 115.612 38.0898 115.753C37.7845 115.894 37.5566 116.086 37.4062 116.327C37.2604 116.569 37.1875 116.844 37.1875 117.154C37.1875 117.364 37.2308 117.555 37.3174 117.729C37.4085 117.897 37.5475 118.054 37.7344 118.2C37.9258 118.346 38.1673 118.48 38.459 118.604C38.7552 118.727 39.1084 118.845 39.5186 118.959C40.0837 119.118 40.5713 119.296 40.9814 119.492C41.3916 119.688 41.7288 119.909 41.9932 120.155C42.262 120.397 42.4603 120.673 42.5879 120.982C42.7201 121.288 42.7861 121.634 42.7861 122.021C42.7861 122.427 42.7041 122.794 42.54 123.122C42.376 123.45 42.1413 123.73 41.8359 123.963C41.5306 124.195 41.1637 124.375 40.7354 124.503C40.3115 124.626 39.8376 124.688 39.3135 124.688C38.8532 124.688 38.3997 124.624 37.9531 124.496C37.5111 124.368 37.1077 124.177 36.7432 123.922C36.3831 123.667 36.0938 123.352 35.875 122.979C35.6608 122.6 35.5537 122.163 35.5537 121.666H36.8662C36.8662 122.008 36.9323 122.302 37.0645 122.548C37.1966 122.789 37.3766 122.99 37.6045 123.149C37.8369 123.309 38.099 123.427 38.3906 123.505C38.6868 123.578 38.9945 123.614 39.3135 123.614C39.7738 123.614 40.1634 123.55 40.4824 123.423C40.8014 123.295 41.043 123.113 41.207 122.876C41.3757 122.639 41.46 122.359 41.46 122.035ZM50.9688 118.877V119.95H45.582V118.877H50.9688ZM45.7871 114.598V124.551H44.4678V114.598H45.7871ZM52.1172 114.598V124.551H50.8047V114.598H52.1172ZM60.7852 123.478V124.551H55.5146V123.478H60.7852ZM55.7812 114.598V124.551H54.4619V114.598H55.7812ZM60.0879 118.877V119.95H55.5146V118.877H60.0879ZM60.7168 114.598V115.678H55.5146V114.598H60.7168Z" fill="white"/>
<path d="M37.5703 138.216V148.169H36.251V138.216H37.5703ZM43.4424 138.216V148.169H42.1436V138.216H43.4424ZM46.6416 138.216V139.296H38.9512V138.216H46.6416Z" fill="white"/>
<rect x="129.5" y="42.1815" width="161.372" height="110" transform="rotate(90 129.5 42.1815)" stroke="white"/>
<rect x="129.5" y="64.8152" width="20.6497" height="110" transform="rotate(90 129.5 64.8152)" stroke="white"/>
<rect x="129.5" y="107.13" width="23.6019" height="110" transform="rotate(90 129.5 107.13)" stroke="white"/>
<rect x="129.5" y="152.398" width="23.6019" height="110" transform="rotate(90 129.5 152.398)" stroke="white"/>
<path d="M145.84 51.5146L142.545 60.5859H141.198L144.992 50.6328H145.86L145.84 51.5146ZM148.602 60.5859L145.3 51.5146L145.279 50.6328H146.148L149.955 60.5859H148.602ZM148.431 56.9014V57.9814H142.839V56.9014H148.431ZM152.464 58.583L155.875 53.1895H157.147V60.5859H155.875V55.1924L152.464 60.5859H151.206V53.1895H152.464V58.583ZM155.185 50.5098H156.21C156.21 50.8652 156.128 51.182 155.964 51.46C155.8 51.7334 155.565 51.9476 155.26 52.1025C154.955 52.2575 154.592 52.335 154.173 52.335C153.54 52.335 153.038 52.1663 152.669 51.8291C152.304 51.4873 152.122 51.0475 152.122 50.5098H153.148C153.148 50.7786 153.225 51.0156 153.38 51.2207C153.535 51.4258 153.799 51.5283 154.173 51.5283C154.538 51.5283 154.797 51.4258 154.952 51.2207C155.107 51.0156 155.185 50.7786 155.185 50.5098Z" fill="white"/>
<path d="M145.57 70.3143V80.2675H144.251V70.3143H145.57ZM147.854 74.8739V75.913H145.488V74.8739H147.854ZM154.997 74.9764V75.6053C154.997 76.3527 154.904 77.0227 154.717 77.6151C154.53 78.2076 154.261 78.7111 153.91 79.1259C153.559 79.5406 153.138 79.8573 152.646 80.076C152.158 80.2948 151.611 80.4042 151.005 80.4042C150.417 80.4042 149.877 80.2948 149.385 80.076C148.897 79.8573 148.473 79.5406 148.113 79.1259C147.758 78.7111 147.482 78.2076 147.286 77.6151C147.09 77.0227 146.992 76.3527 146.992 75.6053V74.9764C146.992 74.229 147.088 73.5614 147.279 72.9735C147.475 72.3811 147.751 71.8775 148.107 71.4628C148.462 71.0435 148.884 70.7245 149.371 70.5057C149.863 70.287 150.403 70.1776 150.991 70.1776C151.597 70.1776 152.144 70.287 152.632 70.5057C153.124 70.7245 153.546 71.0435 153.897 71.4628C154.252 71.8775 154.523 72.3811 154.71 72.9735C154.901 73.5614 154.997 74.229 154.997 74.9764ZM153.692 75.6053V74.9628C153.692 74.3703 153.63 73.8462 153.507 73.3905C153.388 72.9348 153.213 72.552 152.981 72.2421C152.748 71.9322 152.463 71.6975 152.126 71.538C151.793 71.3785 151.415 71.2987 150.991 71.2987C150.581 71.2987 150.21 71.3785 149.877 71.538C149.549 71.6975 149.266 71.9322 149.029 72.2421C148.797 72.552 148.617 72.9348 148.489 73.3905C148.362 73.8462 148.298 74.3703 148.298 74.9628V75.6053C148.298 76.2024 148.362 76.731 148.489 77.1913C148.617 77.647 148.799 78.0321 149.036 78.3466C149.278 78.6565 149.563 78.8912 149.891 79.0507C150.223 79.2102 150.595 79.2899 151.005 79.2899C151.433 79.2899 151.814 79.2102 152.147 79.0507C152.479 78.8912 152.76 78.6565 152.987 78.3466C153.22 78.0321 153.395 77.647 153.514 77.1913C153.632 76.731 153.692 76.2024 153.692 75.6053Z" fill="white"/>
<path d="M145.238 167.501L147.87 160.849H149.388L145.867 169.141C145.767 169.374 145.655 169.599 145.532 169.818C145.409 170.032 145.259 170.224 145.081 170.392C144.903 170.561 144.682 170.695 144.418 170.796C144.158 170.896 143.835 170.946 143.447 170.946C143.338 170.946 143.208 170.939 143.058 170.925C142.907 170.916 142.809 170.905 142.764 170.891L142.805 169.839C142.855 169.848 142.953 169.857 143.099 169.866C143.244 169.87 143.352 169.873 143.42 169.873C143.68 169.873 143.885 169.82 144.035 169.715C144.186 169.611 144.306 169.478 144.397 169.319C144.493 169.155 144.58 168.989 144.657 168.82L145.238 167.501ZM143.003 160.849L145.771 167.049L146.1 168.273L144.992 168.355L141.526 160.849H143.003ZM151.438 168.799L154.85 163.406H156.121V170.802H154.85V165.409L151.438 170.802H150.181V163.406H151.438V168.799Z" fill="white"/>
<path d="M143.204 191.61H142.021V190.769H143.156C143.658 190.769 144.063 190.699 144.373 190.557C144.683 190.416 144.909 190.22 145.05 189.969C145.191 189.719 145.262 189.429 145.262 189.101C145.262 188.787 145.184 188.5 145.029 188.24C144.874 187.976 144.635 187.766 144.312 187.611C143.988 187.451 143.571 187.372 143.061 187.372C142.678 187.372 142.331 187.445 142.021 187.59C141.712 187.732 141.465 187.93 141.283 188.185C141.101 188.436 141.01 188.725 141.01 189.053H139.69C139.69 188.63 139.779 188.249 139.957 187.912C140.135 187.57 140.379 187.281 140.688 187.044C140.998 186.802 141.356 186.617 141.762 186.49C142.172 186.362 142.605 186.298 143.061 186.298C143.594 186.298 144.077 186.36 144.51 186.483C144.943 186.602 145.314 186.779 145.624 187.016C145.934 187.253 146.171 187.547 146.335 187.898C146.499 188.249 146.581 188.657 146.581 189.122C146.581 189.464 146.501 189.785 146.342 190.086C146.182 190.386 145.954 190.651 145.658 190.879C145.362 191.106 145.007 191.286 144.592 191.419C144.177 191.546 143.715 191.61 143.204 191.61ZM142.021 191.029H143.204C143.765 191.029 144.264 191.086 144.701 191.2C145.139 191.314 145.508 191.48 145.809 191.699C146.109 191.918 146.337 192.189 146.492 192.512C146.652 192.831 146.731 193.198 146.731 193.613C146.731 194.078 146.64 194.49 146.458 194.85C146.28 195.21 146.027 195.516 145.699 195.766C145.371 196.017 144.981 196.206 144.53 196.334C144.084 196.461 143.594 196.525 143.061 196.525C142.632 196.525 142.208 196.47 141.789 196.361C141.374 196.247 140.998 196.074 140.661 195.841C140.324 195.604 140.053 195.304 139.848 194.939C139.647 194.575 139.547 194.137 139.547 193.627H140.866C140.866 193.959 140.957 194.265 141.14 194.543C141.326 194.821 141.584 195.044 141.912 195.213C142.24 195.377 142.623 195.459 143.061 195.459C143.562 195.459 143.986 195.381 144.332 195.226C144.683 195.067 144.95 194.85 145.132 194.577C145.319 194.299 145.412 193.987 145.412 193.64C145.412 193.335 145.362 193.071 145.262 192.847C145.166 192.619 145.022 192.433 144.831 192.287C144.644 192.141 144.41 192.034 144.127 191.965C143.849 191.893 143.525 191.856 143.156 191.856H142.021V191.029ZM150.867 189.894C150.589 189.894 150.323 189.956 150.067 190.079C149.817 190.202 149.609 190.373 149.445 190.591C149.286 190.806 149.206 191.054 149.206 191.337H147.996C147.996 190.894 148.133 190.487 148.406 190.113C148.68 189.735 149.035 189.432 149.473 189.204C149.91 188.971 150.375 188.855 150.867 188.855C151.387 188.855 151.847 188.953 152.248 189.149C152.649 189.345 152.986 189.614 153.26 189.956C153.538 190.297 153.747 190.692 153.889 191.138C154.03 191.58 154.101 192.05 154.101 192.547V192.834C154.101 193.33 154.028 193.802 153.882 194.249C153.741 194.691 153.531 195.085 153.253 195.431C152.979 195.773 152.642 196.042 152.241 196.238C151.845 196.434 151.389 196.532 150.874 196.532C150.323 196.532 149.828 196.413 149.391 196.176C148.958 195.939 148.616 195.62 148.365 195.219C148.119 194.814 147.996 194.358 147.996 193.852H149.206C149.206 194.158 149.279 194.436 149.425 194.686C149.575 194.932 149.776 195.128 150.026 195.274C150.277 195.42 150.56 195.493 150.874 195.493C151.216 195.493 151.51 195.415 151.756 195.26C152.007 195.105 152.212 194.9 152.371 194.645C152.531 194.39 152.647 194.105 152.72 193.791C152.797 193.472 152.836 193.153 152.836 192.834V192.547C152.836 192.223 152.797 191.904 152.72 191.589C152.647 191.275 152.531 190.99 152.371 190.735C152.216 190.48 152.013 190.277 151.763 190.127C151.517 189.972 151.218 189.894 150.867 189.894ZM153.451 192.102V193.134H150.04V192.102H153.451ZM157.177 194.385L160.588 188.992H161.859V196.388H160.588V190.995L157.177 196.388H155.919V188.992H157.177V194.385ZM159.897 186.312H160.923C160.923 186.668 160.841 186.984 160.677 187.262C160.513 187.536 160.278 187.75 159.973 187.905C159.667 188.06 159.305 188.137 158.886 188.137C158.252 188.137 157.751 187.969 157.382 187.631C157.017 187.29 156.835 186.85 156.835 186.312H157.86C157.86 186.581 157.938 186.818 158.093 187.023C158.248 187.228 158.512 187.331 158.886 187.331C159.25 187.331 159.51 187.228 159.665 187.023C159.82 186.818 159.897 186.581 159.897 186.312Z" fill="white"/>
<path d="M143.01 92.948L145.402 96.7625L147.795 92.948H149.333L146.189 97.8767L149.408 102.901H147.857L145.402 99.0115L142.948 102.901H141.397L144.616 97.8767L141.472 92.948H143.01ZM152.109 100.898L155.52 95.5046H156.791V102.901H155.52V97.5076L152.109 102.901H150.851V95.5046H152.109V100.898Z" fill="white"/>
<path d="M142.203 115.582H143.529V124.462H146.947V115.582H148.26V124.462H151.657V115.582H152.977V125.535H142.203V115.582ZM156.511 123.532L159.922 118.138H161.193V125.535H159.922V120.141L156.511 125.535H155.253V118.138H156.511V123.532Z" fill="white"/>
<path d="M145.529 146.87L150.431 139.2H151.75V149.153H150.431V141.476L145.529 149.153H144.217V139.2H145.529V146.87ZM156.973 141.756V149.153H155.701V141.756H156.973ZM159.454 141.756V142.782H153.268V141.756H159.454Z" fill="white"/>
<rect x="249.5" y="42.1815" width="161.372" height="119" transform="rotate(90 249.5 42.1815)" stroke="white"/>
<rect x="249.5" y="64.8152" width="20.6497" height="119" transform="rotate(90 249.5 64.8152)" stroke="white"/>
<rect x="249.5" y="108.115" width="22.6178" height="119" transform="rotate(90 249.5 108.115)" stroke="white"/>
<rect x="249.5" y="152.398" width="23.6019" height="119" transform="rotate(90 249.5 152.398)" stroke="white"/>
<path d="M270.679 55.726H267.883L267.233 55.4594C266.513 55.2315 265.96 54.8829 265.572 54.4135C265.185 53.9395 264.991 53.3516 264.991 52.6498C264.991 52.0072 265.132 51.4626 265.415 51.016C265.702 50.5694 266.108 50.2299 266.632 49.9974C267.16 49.765 267.785 49.6488 268.505 49.6488H271.69V59.6019H270.371V50.7289H268.505C267.776 50.7289 267.227 50.9021 266.857 51.2484C266.493 51.5948 266.311 52.0619 266.311 52.6498C266.311 53.0326 266.39 53.3744 266.55 53.6752C266.714 53.976 266.955 54.2129 267.274 54.3861C267.593 54.5593 267.99 54.6459 268.464 54.6459H270.686L270.679 55.726ZM268.437 55.0424L266.017 59.6019H264.615L267.104 55.0424H268.437Z" fill="white"/>
<path d="M266.833 70.3143V80.2675H265.534V70.3143H266.833ZM270.032 70.3143V71.3944H262.342V70.3143H270.032ZM272.575 74.368H275.289C276.018 74.368 276.633 74.4911 277.135 74.7372C277.636 74.9787 278.017 75.3182 278.276 75.7557C278.536 76.1932 278.666 76.7059 278.666 77.2938C278.666 77.7313 278.593 78.1324 278.447 78.4969C278.301 78.857 278.085 79.1714 277.798 79.4403C277.511 79.7046 277.158 79.9097 276.738 80.0555C276.319 80.1968 275.836 80.2675 275.289 80.2675H271.57V70.3143H272.89V79.1942H275.289C275.777 79.1942 276.171 79.1053 276.472 78.9276C276.777 78.7453 277 78.5083 277.142 78.2167C277.283 77.925 277.354 77.6128 277.354 77.2802C277.354 76.9475 277.283 76.6421 277.142 76.3641C277 76.0861 276.777 75.8651 276.472 75.701C276.171 75.5324 275.777 75.4481 275.289 75.4481H272.575V74.368ZM281.188 70.3143V80.2675H279.869V70.3143H281.188Z" fill="white"/>
<path d="M261.572 160.849H262.851L266.111 168.964L269.365 160.849H270.65L266.604 170.802H265.605L261.572 160.849ZM261.155 160.849H262.283L262.468 166.92V170.802H261.155V160.849ZM269.933 160.849H271.061V170.802H269.748V166.92L269.933 160.849ZM274.444 164.903H277.158C277.887 164.903 278.503 165.026 279.004 165.272C279.505 165.514 279.886 165.853 280.146 166.291C280.405 166.728 280.535 167.241 280.535 167.829C280.535 168.266 280.462 168.667 280.316 169.032C280.171 169.392 279.954 169.706 279.667 169.975C279.38 170.24 279.027 170.445 278.607 170.59C278.188 170.732 277.705 170.802 277.158 170.802H273.439V160.849H274.759V169.729H277.158C277.646 169.729 278.04 169.64 278.341 169.463C278.646 169.28 278.869 169.043 279.011 168.752C279.152 168.46 279.223 168.148 279.223 167.815C279.223 167.482 279.152 167.177 279.011 166.899C278.869 166.621 278.646 166.4 278.341 166.236C278.04 166.067 277.646 165.983 277.158 165.983H274.444V164.903ZM283.058 160.849V170.802H281.738V160.849H283.058Z" fill="white"/>
<path d="M267.818 191.712V192.341C267.818 193.088 267.725 193.758 267.538 194.35C267.351 194.943 267.082 195.446 266.732 195.861C266.381 196.276 265.959 196.593 265.467 196.811C264.979 197.03 264.432 197.139 263.826 197.139C263.238 197.139 262.698 197.03 262.206 196.811C261.719 196.593 261.295 196.276 260.935 195.861C260.579 195.446 260.304 194.943 260.108 194.35C259.912 193.758 259.814 193.088 259.814 192.341V191.712C259.814 190.964 259.909 190.297 260.101 189.709C260.297 189.116 260.572 188.613 260.928 188.198C261.283 187.779 261.705 187.46 262.193 187.241C262.685 187.022 263.225 186.913 263.813 186.913C264.419 186.913 264.966 187.022 265.453 187.241C265.945 187.46 266.367 187.779 266.718 188.198C267.073 188.613 267.345 189.116 267.531 189.709C267.723 190.297 267.818 190.964 267.818 191.712ZM266.513 192.341V191.698C266.513 191.106 266.451 190.581 266.328 190.126C266.21 189.67 266.034 189.287 265.802 188.977C265.569 188.667 265.285 188.433 264.947 188.273C264.615 188.114 264.236 188.034 263.813 188.034C263.402 188.034 263.031 188.114 262.698 188.273C262.37 188.433 262.088 188.667 261.851 188.977C261.618 189.287 261.438 189.67 261.311 190.126C261.183 190.581 261.119 191.106 261.119 191.698V192.341C261.119 192.938 261.183 193.466 261.311 193.927C261.438 194.382 261.621 194.767 261.858 195.082C262.099 195.392 262.384 195.626 262.712 195.786C263.045 195.945 263.416 196.025 263.826 196.025C264.255 196.025 264.635 195.945 264.968 195.786C265.301 195.626 265.581 195.392 265.809 195.082C266.041 194.767 266.217 194.382 266.335 193.927C266.454 193.466 266.513 192.938 266.513 192.341ZM276.295 191.329V192.402H270.908V191.329H276.295ZM271.113 187.05V197.003H269.794V187.05H271.113ZM277.443 187.05V197.003H276.131V187.05H277.443ZM281.162 194.719L286.064 187.05H287.383V197.003H286.064V189.326L281.162 197.003H279.85V187.05H281.162V194.719Z" fill="white"/>
<path d="M270.818 96.6261V97.255C270.818 98.0024 270.725 98.6723 270.538 99.2648C270.351 99.8572 270.082 100.361 269.731 100.776C269.381 101.19 268.959 101.507 268.467 101.726C267.979 101.944 267.432 102.054 266.826 102.054C266.238 102.054 265.698 101.944 265.206 101.726C264.718 101.507 264.295 101.19 263.935 100.776C263.579 100.361 263.303 99.8572 263.107 99.2648C262.911 98.6723 262.813 98.0024 262.813 97.255V96.6261C262.813 95.8787 262.909 95.2111 263.101 94.6232C263.297 94.0307 263.572 93.5271 263.928 93.1124C264.283 92.6932 264.705 92.3741 265.192 92.1554C265.685 91.9366 266.225 91.8273 266.812 91.8273C267.419 91.8273 267.965 91.9366 268.453 92.1554C268.945 92.3741 269.367 92.6932 269.718 93.1124C270.073 93.5271 270.344 94.0307 270.531 94.6232C270.723 95.2111 270.818 95.8787 270.818 96.6261ZM269.513 97.255V96.6124C269.513 96.02 269.451 95.4959 269.328 95.0402C269.21 94.5844 269.034 94.2016 268.802 93.8917C268.569 93.5818 268.285 93.3471 267.947 93.1876C267.615 93.0281 267.236 92.9484 266.812 92.9484C266.402 92.9484 266.031 93.0281 265.698 93.1876C265.37 93.3471 265.088 93.5818 264.851 93.8917C264.618 94.2016 264.438 94.5844 264.311 95.0402C264.183 95.4959 264.119 96.02 264.119 96.6124V97.255C264.119 97.852 264.183 98.3807 264.311 98.8409C264.438 99.2967 264.62 99.6818 264.857 99.9962C265.099 100.306 265.384 100.541 265.712 100.7C266.045 100.86 266.416 100.94 266.826 100.94C267.255 100.94 267.635 100.86 267.968 100.7C268.3 100.541 268.581 100.306 268.809 99.9962C269.041 99.6818 269.216 99.2967 269.335 98.8409C269.453 98.3807 269.513 97.852 269.513 97.255ZM279.295 96.2433V97.3165H273.908V96.2433H279.295ZM274.113 91.964V101.917H272.794V91.964H274.113ZM280.443 91.964V101.917H279.131V91.964H280.443Z" fill="white"/>
<path d="M268.818 120.244V120.873C268.818 121.62 268.725 122.29 268.538 122.883C268.351 123.475 268.082 123.979 267.731 124.393C267.381 124.808 266.959 125.125 266.467 125.344C265.979 125.562 265.432 125.672 264.826 125.672C264.238 125.672 263.698 125.562 263.206 125.344C262.718 125.125 262.295 124.808 261.935 124.393C261.579 123.979 261.303 123.475 261.107 122.883C260.911 122.29 260.813 121.62 260.813 120.873V120.244C260.813 119.497 260.909 118.829 261.101 118.241C261.297 117.649 261.572 117.145 261.928 116.73C262.283 116.311 262.705 115.992 263.192 115.773C263.685 115.554 264.225 115.445 264.812 115.445C265.419 115.445 265.965 115.554 266.453 115.773C266.945 115.992 267.367 116.311 267.718 116.73C268.073 117.145 268.344 117.649 268.531 118.241C268.723 118.829 268.818 119.497 268.818 120.244ZM267.513 120.873V120.23C267.513 119.638 267.451 119.114 267.328 118.658C267.21 118.202 267.034 117.819 266.802 117.51C266.569 117.2 266.285 116.965 265.947 116.805C265.615 116.646 265.236 116.566 264.812 116.566C264.402 116.566 264.031 116.646 263.698 116.805C263.37 116.965 263.088 117.2 262.851 117.51C262.618 117.819 262.438 118.202 262.311 118.658C262.183 119.114 262.119 119.638 262.119 120.23V120.873C262.119 121.47 262.183 121.998 262.311 122.459C262.438 122.914 262.62 123.3 262.857 123.614C263.099 123.924 263.384 124.159 263.712 124.318C264.045 124.478 264.416 124.557 264.826 124.557C265.255 124.557 265.635 124.478 265.968 124.318C266.3 124.159 266.581 123.924 266.809 123.614C267.041 123.3 267.216 122.914 267.335 122.459C267.453 121.998 267.513 121.47 267.513 120.873ZM277.295 119.861V120.934H271.908V119.861H277.295ZM272.113 115.582V125.535H270.794V115.582H272.113ZM278.443 115.582V125.535H277.131V115.582H278.443ZM284.596 116.464L281.301 125.535H279.954L283.748 115.582H284.616L284.596 116.464ZM287.357 125.535L284.056 116.464L284.035 115.582H284.903L288.711 125.535H287.357ZM287.187 121.85V122.93H281.595V121.85H287.187Z" fill="white"/>
<path d="M268.818 143.862V144.491C268.818 145.238 268.725 145.908 268.538 146.5C268.351 147.093 268.082 147.596 267.731 148.011C267.381 148.426 266.959 148.743 266.467 148.961C265.979 149.18 265.432 149.289 264.826 149.289C264.238 149.289 263.698 149.18 263.206 148.961C262.718 148.743 262.295 148.426 261.935 148.011C261.579 147.596 261.303 147.093 261.107 146.5C260.911 145.908 260.813 145.238 260.813 144.491V143.862C260.813 143.114 260.909 142.447 261.101 141.859C261.297 141.266 261.572 140.763 261.928 140.348C262.283 139.929 262.705 139.61 263.192 139.391C263.685 139.172 264.225 139.063 264.812 139.063C265.419 139.063 265.965 139.172 266.453 139.391C266.945 139.61 267.367 139.929 267.718 140.348C268.073 140.763 268.344 141.266 268.531 141.859C268.723 142.447 268.818 143.114 268.818 143.862ZM267.513 144.491V143.848C267.513 143.256 267.451 142.731 267.328 142.276C267.21 141.82 267.034 141.437 266.802 141.127C266.569 140.817 266.285 140.583 265.947 140.423C265.615 140.264 265.236 140.184 264.812 140.184C264.402 140.184 264.031 140.264 263.698 140.423C263.37 140.583 263.088 140.817 262.851 141.127C262.618 141.437 262.438 141.82 262.311 142.276C262.183 142.731 262.119 143.256 262.119 143.848V144.491C262.119 145.088 262.183 145.616 262.311 146.077C262.438 146.532 262.62 146.917 262.857 147.232C263.099 147.542 263.384 147.776 263.712 147.936C264.045 148.095 264.416 148.175 264.826 148.175C265.255 148.175 265.635 148.095 265.968 147.936C266.3 147.776 266.581 147.542 266.809 147.232C267.041 146.917 267.216 146.532 267.335 146.077C267.453 145.616 267.513 145.088 267.513 144.491ZM277.295 143.479V144.552H271.908V143.479H277.295ZM272.113 139.2V149.153H270.794V139.2H272.113ZM278.443 139.2V149.153H277.131V139.2H278.443ZM288.451 143.862V144.491C288.451 145.238 288.358 145.908 288.171 146.5C287.984 147.093 287.715 147.596 287.364 148.011C287.013 148.426 286.592 148.743 286.1 148.961C285.612 149.18 285.065 149.289 284.459 149.289C283.871 149.289 283.331 149.18 282.839 148.961C282.351 148.743 281.927 148.426 281.567 148.011C281.212 147.596 280.936 147.093 280.74 146.5C280.544 145.908 280.446 145.238 280.446 144.491V143.862C280.446 143.114 280.542 142.447 280.733 141.859C280.929 141.266 281.205 140.763 281.561 140.348C281.916 139.929 282.338 139.61 282.825 139.391C283.317 139.172 283.857 139.063 284.445 139.063C285.051 139.063 285.598 139.172 286.086 139.391C286.578 139.61 287 139.929 287.351 140.348C287.706 140.763 287.977 141.266 288.164 141.859C288.355 142.447 288.451 143.114 288.451 143.862ZM287.146 144.491V143.848C287.146 143.256 287.084 142.731 286.961 142.276C286.842 141.82 286.667 141.437 286.435 141.127C286.202 140.817 285.917 140.583 285.58 140.423C285.247 140.264 284.869 140.184 284.445 140.184C284.035 140.184 283.664 140.264 283.331 140.423C283.003 140.583 282.72 140.817 282.483 141.127C282.251 141.437 282.071 141.82 281.943 142.276C281.816 142.731 281.752 143.256 281.752 143.848V144.491C281.752 145.088 281.816 145.616 281.943 146.077C282.071 146.532 282.253 146.917 282.49 147.232C282.732 147.542 283.017 147.776 283.345 147.936C283.677 148.095 284.049 148.175 284.459 148.175C284.887 148.175 285.268 148.095 285.601 147.936C285.933 147.776 286.214 147.542 286.441 147.232C286.674 146.917 286.849 146.532 286.968 146.077C287.086 145.616 287.146 145.088 287.146 144.491Z" fill="white"/>
<rect x="337.5" y="41.1974" width="162.356" height="87" transform="rotate(90 337.5 41.1974)" stroke="white"/>
<rect x="337.5" y="64.8152" width="20.6497" height="87" transform="rotate(90 337.5 64.8152)" stroke="white"/>
<rect x="337.5" y="108.115" width="22.6178" height="87" transform="rotate(90 337.5 108.115)" stroke="white"/>
<rect x="337.5" y="152.398" width="23.6019" height="87" transform="rotate(90 337.5 152.398)" stroke="white"/>
<defs>
<filter id="filter0_f_365_4" x="0" y="0" width="358" height="222.242" filterUnits="userSpaceOnUse" color-interpolation-filters="sRGB">
<feFlood flood-opacity="0" result="BackgroundImageFix"/>
<feBlend mode="normal" in="SourceGraphic" in2="BackgroundImageFix" result="shape"/>
<feGaussianBlur stdDeviation="10" result="effect1_foregroundBlur_365_4"/>
</filter>
<linearGradient id="paint0_linear_365_4" x1="177.422" y1="70.7345" x2="0.984326" y2="65.7174" gradientUnits="userSpaceOnUse">
<stop stop-color="#265D7E"/>
<stop offset="1" stop-color="#6490AA"/>
</linearGradient>
</defs>
</svg>
